<?xml version="1.0" standalone="no"?>
<!DOCTYPE svg PUBLIC "-//W3C//DTD SVG 20010904//EN"
 "http://www.w3.org/TR/2001/REC-SVG-20010904/DTD/svg10.dtd">
<svg version="1.0" xmlns="http://www.w3.org/2000/svg"
 width="175.000000pt" height="175.000000pt" viewBox="0 0 175.000000 175.000000"
 preserveAspectRatio="xMidYMid meet">
<metadata>
Created by potrace 1.14, written by Peter Selinger 2001-2017
</metadata>
<g transform="translate(0.000000,175.000000) scale(0.100000,-0.100000)"
fill="#000000" stroke="none">
<path d="M715 1681 c-241 -61 -394 -130 -578 -258 -115 -81 -112 -73 -99 -271
19 -288 63 -473 156 -668 56 -116 137 -246 143 -228 6 17 -75 392 -91 422 -25
48 -57 165 -71 257 -17 115 -29 337 -18 350 13 17 103 79 179 124 110 64 221
107 382 147 l147 37 100 -23 c147 -32 269 -74 368 -124 88 -45 214 -124 242
-153 40 -39 -3 -428 -62 -568 -24 -58 -117 -459 -110 -479 4 -12 94 129 134
209 100 200 156 442 169 731 l7 144 -37 34 c-85 81 -304 206 -456 260 -61 22
-337 97 -351 96 -2 -1 -72 -18 -154 -39z"/>
<path d="M525 1281 c-82 -20 -158 -79 -197 -154 -17 -32 -23 -65 -26 -140 -13
-288 123 -823 234 -928 35 -33 94 -32 129 1 35 33 59 80 112 225 45 122 80
195 95 195 13 0 56 -92 104 -223 51 -139 81 -190 125 -212 84 -44 155 38 228
263 52 161 94 374 112 573 9 99 8 127 -5 179 -29 112 -103 189 -208 217 -76
19 -102 17 -213 -22 -125 -44 -164 -44 -290 0 -99 34 -141 40 -200 26z m196
-106 c130 -45 171 -45 301 1 78 27 114 34 149 31 66 -6 133 -47 166 -105 26
-44 28 -54 27 -157 -4 -297 -148 -830 -224 -830 -21 0 -53 62 -101 195 -49
134 -68 176 -104 219 -30 35 -75 42 -113 15 -29 -20 -73 -107 -127 -255 -42
-115 -76 -179 -96 -179 -18 0 -60 79 -95 176 -85 236 -149 628 -123 752 19 93
111 171 201 172 21 0 83 -16 139 -35z"/>
</g>
</svg>
